============================
RUSSIAN AUDIO
============================

Predators.2010.RUS.CAMRip.XViD-RELiZLAB


General
Complete name : Predators.2010.RUS.CAMRip.XViD-RELiZLAB.avi
Format : AVI
Format/Info : Audio Video Interleave
File size : 1.42 GiB
Duration : 1h 41mn
Overall bit rate : 2 008 Kbps
Writing library : VirtualDub-MPEG2 build 24586/release

Video
ID : 0
Format : MPEG-4 Visual
Format profile : AdvancedSimple@L5
Format settings, BVOP : Yes
Format settings, QPel : No
Format settings, GMC : No warppoints
Format settings, Matrix : Default (H.263)
Muxing mode : Packed bitstream
Codec ID : XVID
Codec ID/Hint : XviD
Duration : 1h 41mn
Bit rate : 1 806 Kbps
Width : 712 pixels
Height : 260 pixels
Display aspect ratio : 2.738
Frame rate : 25.000 fps
Resolution : 24 bits
Colorimetry : 4:2:0
Scan type : Progressive
Bits/(Pixel*Frame) : 0.390
Stream size : 1.28 GiB (90%)
Writing library : XviD 1.2.1 (UTC 2008-12-04)

Audio---RUSSIAN
ID : 1
Format : MPEG Audio
Format version : Version 1
Format profile : Layer 3
Format settings, Mode : Joint stereo / MS Stereo
Codec ID : 55
Codec ID/Hint : MP3
Duration : 1h 41mn
Bit rate mode : Constant
Bit rate : 192 Kbps
Channel(s) : 2 channels
Sampling rate : 48.0 KHz
Resolution : 16 bits
Stream size : 139 MiB (10%)
Alignment : Split accross interleaves
Interleave, duration : 40 ms (1.00 video frame)
Interleave, preload duration : 500 ms